<?xml version="1.0" encoding="utf-8"?>
<!-- Generator: Adobe Illustrator 24.2.1, SVG Export Plug-In . SVG Version: 6.00 Build 0)  -->
<svg version="1.1" id="图层_1" xmlns="http://www.w3.org/2000/svg" xmlns:xlink="http://www.w3.org/1999/xlink" x="0px" y="0px"
	 viewBox="0 0 200 200" style="enable-background:new 0 0 200 200;" xml:space="preserve">
<style type="text/css">
	.st0{fill:#FFFFFF;}
</style>
<g>
	<g>
		<path class="st0" d="M117.4,1.6c-2.9-0.5-6-1-9-1.3c-2.8-0.2-5.6-0.4-8.4-0.4C78.2,0,57,7.2,39.8,19.9c0.3-0.1,0.5-0.2,0.8-0.3
			c9.6-3.5,19.6-5.3,29.6-5.3c3.7,0,7.5,0.3,11.2,0.8c10.6,1.3,20.8,4.8,30.3,10.2c15.6,9,28.1,23.4,35.2,40.5
			c5.2,13.1,7,27.3,5.1,41.1c-0.9,7.1-2.8,14.1-5.6,20.8c7.6-5.8,14.1-13,18.7-21c4.6-7.8,7.7-16.9,9-26.2c1.5-12.2,0-24.5-4.5-35.7
			C160.7,22.5,141.1,6.3,117.4,1.6z"/>
	</g>
	<g>
		<path class="st0" d="M126.9,53.5c-5.7-7.5-12.9-13.9-20.8-18.5c-7.8-4.6-16.8-7.7-26.2-9c-2.9-0.4-5.9-0.6-9-0.6
			c-8.9,0-17.9,1.7-26.3,4.8C25.3,37.9,10.3,53.7,3.5,73.3c-1.3,4.8-2.3,9.6-2.7,13.8c-0.5,4.1-1,9.2-0.8,14.1
			c0.2,21.7,7.5,42.4,20.4,59.4c-0.1-0.3-0.2-0.5-0.3-0.8c-5.2-12.7-7.1-26.9-5.4-41.1C16,108,19.5,97.8,24.9,88.3
			c9.1-15.5,23.3-27.9,40-34.9c9.9-4,20.3-6.1,30.9-6.1c3.6,0,7.2,0.2,10.8,0.7C113.4,48.9,120.3,50.7,126.9,53.5z"/>
	</g>
	<g>
		<path class="st0" d="M179.9,40.6c5.1,13,7,27.6,5.1,41.1c-1.3,10.6-4.8,20.8-10.2,30.3c-9,15.8-23.6,28.3-41.1,35.2
			c-9.4,3.7-19.3,5.6-29.5,5.6c-3.7,0-7.4-0.3-11.1-0.8c-6.9-0.9-13.9-2.7-20.5-5.5c5.7,7.3,12.8,13.6,20.7,18.2
			c7.8,4.6,16.8,7.7,26.2,9c3,0.4,6.1,0.6,9.1,0.6c9.5,0,18.5-1.8,26.8-5.3c22.7-9.3,38.8-29,43-52.7c0.2-1.2,0.5-2.4,0.5-3.1v-0.3
			l0.1-0.3c0.1-0.4,0.1-0.9,0.2-1.4c0.1-0.6,0.1-1.2,0.3-1.9c2.2-25.1-5-49.8-19.9-69.4C179.7,40.1,179.8,40.4,179.9,40.6z"/>
	</g>
	<g>
		<path class="st0" d="M128.8,185.7c-3.6,0-7.2-0.2-10.8-0.7c-10.6-1.3-20.8-4.8-30.3-10.2c-15.6-9-28.1-23.4-35.2-40.5
			c-5.2-13.1-7-27.4-5.1-41.1c0.9-6.9,2.6-13.5,5.2-19.9c-7.1,5.6-13.4,12.6-18,20.3c-4.6,7.7-7.7,16.8-9,26.2
			c-1.5,12.1,0,24.3,4.5,35.4c7.7,19.7,23.7,34.7,43.9,41.2c9.1,2.4,17.4,3.5,26,3.5c22.1,0,43.2-7.3,60.5-20.4
			c-0.2,0.1-0.5,0.2-0.7,0.3C149.9,183.7,139.2,185.7,128.8,185.7z"/>
	</g>
</g>
</svg>
